PathFileType	4	(X/Y/Z)	/Users/itak/Documents/Research/Walk-IL/dataset/trc/00317_00011.trc
DataRate	CameraRate	NumFrames	NumMarkers	Units	OrigDataRate	OrigDataStartFrame	OrigNumFrames
100.000000	100.000000	4	53	mm	100.000000	379	506
Frame#	Time	RPSI			LPSI			L3			STRN			T10			C7			CLAV			RBAK			LBAK			LSHO			LUPA			LAEL			LAOL			LWTS			LWPS			LFRA			LHPS			LHTS			RSHO			RUPA			RAEL			RAOL			RWTS			RWPS			RFRA			RIFD			RHTS			RHPS			RBHD			LFHD			RFHD			LBHD			LHIP			RHIP			RASI			LASI			LKNE			LTHI			LANK			LTIP			LTOE			LMT1			LMT5			LHEE			RKNE			RTHI			RANK			RTIP			RTOE			RMT1			RMT5			RHEE			LIFD			
		X1	Y1	Z1	X2	Y2	Z2	X3	Y3	Z3	X4	Y4	Z4	X5	Y5	Z5	X6	Y6	Z6	X7	Y7	Z7	X8	Y8	Z8	X9	Y9	Z9	X10	Y10	Z10	X11	Y11	Z11	X12	Y12	Z12	X13	Y13	Z13	X14	Y14	Z14	X15	Y15	Z15	X16	Y16	Z16	X17	Y17	Z17	X18	Y18	Z18	X19	Y19	Z19	X20	Y20	Z20	X21	Y21	Z21	X22	Y22	Z22	X23	Y23	Z23	X24	Y24	Z24	X25	Y25	Z25	X26	Y26	Z26	X27	Y27	Z27	X28	Y28	Z28	X29	Y29	Z29	X30	Y30	Z30	X31	Y31	Z31	X32	Y32	Z32	X33	Y33	Z33	X34	Y34	Z34	X35	Y35	Z35	X36	Y36	Z36	X37	Y37	Z37	X38	Y38	Z38	X39	Y39	Z39	X40	Y40	Z40	X41	Y41	Z41	X42	Y42	Z42	X43	Y43	Z43	X44	Y44	Z44	X45	Y45	Z45	X46	Y46	Z46	X47	Y47	Z47	X48	Y48	Z48	X49	Y49	Z49	X50	Y50	Z50	X51	Y51	Z51	X52	Y52	Z52	X53	Y53	Z53	

380	3.79	504.7920532226562	934.6314697265625	106.0835494995117	489.6549377441406	945.8186645507812	-22.26976585388184	488.5709838867188	1006.200988769531	36.77867126464844	720.01220703125	1185.695190429688	15.28944396972656	471.9281616210938	1122.394897460938	12.56675148010254	514.3430786132812	1370.905029296875	-8.089682579040527	671.861328125	1308.078369140625	8.157085418701172	467.2408752441406	1232.955200195312	58.69256210327148	509.812744140625	1330.450439453125	-109.8907241821289	598.5558471679688	1344.96435546875	-156.6616668701172	602.3118286132812	1229.2529296875	-230.4606323242188	691.8558349609375	1044.779052734375	-253.9903259277344	631.1604614257812	1001.879760742188	-212.630615234375	904.6261596679688	933.8197631835938	-169.4764404296875	894.0286254882812	891.3199462890625	-222.9072265625	763.9846801757812	970.9718627929688	-248.4642181396484	940.2167358398438	841.6884765625	-203.4791412353516	970.2724609375	887.0513305664062	-170.1398010253906	563.9351196289062	1356.85986328125	157.5836791992188	536.981689453125	1299.687133789062	219.5601654052734	460.8789672851562	1046.579711914062	258.0596313476562	450.5205688476562	1039.96533203125	164.5258178710938	493.9926147460938	799.5626220703125	262.6634521484375	439.76953125	802.6401977539062	316.0602722167969	460.1042785644531	979.5348510742188	279.1509704589844	444.6442565917969	630.5623779296875	295.6273193359375	493.1934814453125	692.566162109375	283.0449829101562	422.3248596191406	720.4283447265625	321.7724609375	536.7237548828125	1561.754028320312	73.63948059082031	704.4742431640625	1599.242065429688	-44.6802978515625	693.5933227539062	1601.664672851562	55.85905838012695	526.2007446289062	1548.68505859375	-69.98445129394531	560.478515625	893.7067260742188	-139.8742370605469	602.9302978515625	883.2916870117188	199.7956390380859	697.029052734375	919.5053100585938	142.1492767333984	689.3167114257812	916.5438842773438	-97.89720916748047	551.8577270507812	437.7062683105469	-111.6262512207031	570.0147094726562	577.2781372070312	-126.5077438354492	313.9310607910156	71.07794952392578	-69.46945190429688	436.1029663085938	240.6137542724609	-99.42293548583984	512.60107421875	34.37420272827148	-9.357247352600098	442.8210144042969	28.99967956542969	31.50309753417969	434.5707092285156	43.86952209472656	-81.57660675048828	279.9627075195312	78.67623901367188	-2.639804840087891	797.2635498046875	453.0584106445312	167.7630615234375	728.1565551757812	701.5149536132812	199.3777008056641	931.4136962890625	50.64629364013672	149.8663177490234	851.5526733398438	352.513916015625	163.8763885498047	1104.025756835938	131.3983306884766	102.4107055664062	1057.007934570312	103.9278259277344	59.51413345336914	1030.036376953125	73.34880828857422	170.8053741455078	882.3138427734375	38.35654830932617	103.251579284668	1022.557983398438	828.3603515625	-136.5837707519531	
381	3.8	514.80908203125	933.4130859375	107.819450378418	499.6831359863281	944.533447265625	-20.39812278747559	498.3299865722656	1004.818359375	38.52471160888672	729.53369140625	1184.609130859375	16.43439865112305	481.7203979492188	1120.910034179688	14.19268131256104	523.4338989257812	1369.467407226562	-6.673081398010254	681.0994262695312	1306.903564453125	9.318533897399902	476.5530090332031	1231.538696289062	60.2122802734375	518.8389282226562	1328.9677734375	-108.4001693725586	607.4822387695312	1343.4150390625	-155.4630737304688	610.6309814453125	1227.44970703125	-229.0646820068359	698.120361328125	1041.967529296875	-252.4022521972656	637.05029296875	999.88232421875	-210.8954467773438	909.6522216796875	928.4197998046875	-168.0740661621094	898.4517822265625	885.9591064453125	-221.4008636474609	769.3587646484375	967.296142578125	-246.8905029296875	943.9463500976562	835.6577758789062	-201.8065795898438	974.5797729492188	880.6906127929688	-168.5110168457031	573.3668823242188	1355.48681640625	158.9589538574219	546.8925170898438	1298.0546875	221.0732116699219	472.7908020019531	1044.25830078125	259.7312622070312	461.6077575683594	1037.778198242188	166.2195129394531	508.123779296875	797.2040405273438	263.8812561035156	454.0222473144531	800.0944213867188	317.3262329101562	472.6863708496094	977.1638793945312	280.6825256347656	459.6520080566406	628.0946044921875	296.1900024414062	507.6763916015625	690.16162109375	284.1994018554688	437.1315307617188	717.7882080078125	323.016357421875	545.5117797851562	1560.403686523438	74.79285430908203	713.0641479492188	1598.12939453125	-43.71060562133789	702.2833251953125	1600.60693359375	56.81829071044922	534.8713989257812	1547.19580078125	-68.79173278808594	570.2425537109375	892.406005859375	-138.0876922607422	613.2071533203125	882.4358520507812	201.3512420654297	707.3167114257812	918.6984252929688	143.6387329101562	699.287109375	915.4004516601562	-96.45443725585938	559.8621215820312	437.0726013183594	-111.0177612304688	578.6474609375	576.3304443359375	-125.5172424316406	315.3579406738281	74.17149353027344	-69.95458221435547	440.703369140625	241.6224365234375	-99.2611083984375	512.7435913085938	34.3690071105957	-9.475717544555664	443.3143920898438	29.56181907653809	31.42434120178223	435.2995910644531	44.34709167480469	-81.84264373779297	281.50244140625	82.63603210449219	-3.124417781829834	808.1514282226562	452.4781188964844	168.0682067871094	739.5384521484375	701.647216796875	200.3994445800781	933.7703247070312	47.27516555786133	150.1352386474609	860.65185546875	350.2475891113281	163.9038696289062	1107.7333984375	123.9388198852539	101.1092376708984	1059.930297851562	97.18944549560547	58.67913818359375	1032.985229492188	67.76139831542969	170.3035583496094	884.2025756835938	36.03673553466797	104.0067443847656	1025.962158203125	821.244873046875	-134.729248046875	
382	3.81	525.0679321289062	932.3387451171875	109.55078125	509.9894409179688	943.2801513671875	-18.54877662658691	508.2504272460938	1003.441589355469	40.22615814208984	739.1937255859375	1183.6865234375	17.70033264160156	491.5938720703125	1119.472045898438	15.81895542144775	532.55126953125	1368.090698242188	-5.206118106842041	690.39404296875	1305.835815429688	10.56564998626709	485.8635559082031	1230.172119140625	61.7396354675293	527.921630859375	1327.533325195312	-106.8716430664062	616.47802734375	1341.938720703125	-154.1854858398438	619.0776977539062	1225.747924804688	-227.6095275878906	704.3582763671875	1039.21142578125	-250.7250518798828	642.8822021484375	997.9971923828125	-209.0591278076172	914.4381713867188	922.588134765625	-166.7161254882812	902.5308227539062	880.275634765625	-219.9891815185547	774.5936889648438	963.5609130859375	-245.2955017089844	947.2301635742188	829.1910400390625	-200.2991180419922	978.5349731445312	873.78759765625	-167.0011749267578	582.8051147460938	1354.213989257812	160.3789520263672	556.8141479492188	1296.527099609375	222.6149444580078	484.9260864257812	1042.005615234375	261.4535827636719	472.906005859375	1035.644653320312	167.9427490234375	522.7578735351562	794.8936767578125	265.1223449707031	468.7574768066406	797.5982666015625	318.6060791015625	485.534423828125	974.8558959960938	282.2405700683594	475.2816772460938	625.6988525390625	296.7355651855469	522.6578979492188	687.8031005859375	285.3734741210938	452.5022888183594	715.1971435546875	324.2598571777344	554.352783203125	1559.130981445312	75.99700164794922	721.6806640625	1597.115844726562	-42.70701599121094	710.9984130859375	1599.654541015625	57.80973434448242	543.5751953125	1545.783569335938	-67.55594635009766	580.3446044921875	891.0713500976562	-136.2673645019531	623.6820068359375	881.7763671875	203.0072021484375	717.8261108398438	918.1321411132812	145.2596740722656	709.5518798828125	914.2731323242188	-94.89615631103516	568.3386840820312	436.4801330566406	-110.2715225219727	587.734375	575.3720092773438	-124.4123382568359	317.0424194335938	77.61273956298828	-70.35503387451172	445.6419982910156	242.7512817382812	-98.99137878417969	512.905029296875	34.38235855102539	-9.607377052307129	443.9027709960938	30.1844425201416	31.35219573974609	436.1365051269531	44.88756561279297	-82.08926391601562	283.3621520996094	87.00454711914062	-3.516826391220093	818.8385620117188	451.8518676757812	168.36767578125	750.8626708984375	701.7389526367188	201.5991821289062	935.4701538085938	44.05286407470703	150.2547302246094	869.5235595703125	347.9256591796875	163.7744293212891	1110.912719726562	116.0568237304688	99.35143280029297	1062.176391601562	90.09712982177734	57.45891952514648	1035.326904296875	62.03624725341797	169.3901519775391	885.4151611328125	33.88717651367188	104.5693283081055	1028.91162109375	813.4881591796875	-133.0828094482422	
383	3.82	535.6099243164062	931.43310546875	111.3042526245117	520.5696411132812	942.0742797851562	-16.70788955688477	518.3909301757812	1002.080810546875	41.89654922485352	748.9698486328125	1182.937622070312	19.05410385131836	501.5326538085938	1118.086059570312	17.4560432434082	541.681396484375	1366.788818359375	-3.695367813110352	699.7432861328125	1304.898315429688	11.87786674499512	495.2186279296875	1228.842895507812	63.29863357543945	537.0375366210938	1326.160034179688	-105.3052825927734	625.517822265625	1340.5517578125	-152.8492279052734	627.6198120117188	1224.142211914062	-226.0928955078125	710.5927124023438	1036.531127929688	-248.9588623046875	648.678466796875	996.2341918945312	-207.1171875	918.9857788085938	916.3427124023438	-165.4055633544922	906.2711181640625	874.3121948242188	-218.6892242431641	779.7054443359375	959.785888671875	-243.6809997558594	950.0587158203125	822.3274536132812	-198.9743347167969	982.1395263671875	866.3703002929688	-165.6356506347656	592.2463989257812	1353.047241210938	161.8454284667969	566.7448120117188	1295.098388671875	224.1825866699219	497.2554931640625	1039.832763671875	263.2276306152344	484.4304809570312	1033.559448242188	169.6858062744141	537.85595703125	792.655029296875	266.3852844238281	483.9297485351562	795.1679077148438	319.8936767578125	498.6157531738281	972.6209106445312	283.8204650878906	491.5365295410156	623.4010009765625	297.2818603515625	538.098876953125	685.5121459960938	286.56494140625	468.3978576660156	712.6626586914062	325.4828491210938	563.2403564453125	1557.974731445312	77.24520874023438	730.3220825195312	1596.238891601562	-41.67111587524414	719.7368774414062	1598.8486328125	58.83204650878906	552.306884765625	1544.482421875	-66.28250122070312	590.76220703125	889.7273559570312	-134.4276733398438	634.3888549804688	881.3071899414062	204.7862701416016	728.5630493164062	917.7708740234375	146.9858703613281	720.1014404296875	913.1713256835938	-93.25090789794922	577.313720703125	435.938720703125	-109.3944396972656	597.28564453125	574.4095458984375	-123.202018737793	319.0426635742188	81.43695831298828	-70.63050842285156	450.9543151855469	244.0210723876953	-98.60490417480469	513.0726318359375	34.42363739013672	-9.73432731628418	444.5922546386719	30.84662818908691	31.29982566833496	437.0982055664062	45.50376892089844	-82.30341339111328	285.6243591308594	91.82610321044922	-3.778451681137085	829.213134765625	451.13134765625	168.7259979248047	762.0657348632812	701.6814575195312	202.9702453613281	936.8677368164062	41.25262069702148	150.2251739501953	878.1592407226562	345.642333984375	163.5477142333984	1113.888427734375	108.0414047241211	97.25872802734375	1064.09130859375	82.95453643798828	55.93558502197266	1037.368041992188	56.45330047607422	168.0959930419922	886.3671875	32.09465408325195	104.8490524291992	1031.382568359375	805.1124267578125	-131.6735229492188	
